<?xml version="1.0" encoding="iso-8859-1"?>
<!-- Generator: Adobe Illustrator 16.0.0, SVG Export Plug-In . SVG Version: 6.00 Build 0)  -->
<!DOCTYPE svg PUBLIC "-//W3C//DTD SVG 1.1//EN" "http://www.w3.org/Graphics/SVG/1.1/DTD/svg11.dtd">
<svg version="1.1" id="Capa_1" xmlns="http://www.w3.org/2000/svg" xmlns:xlink="http://www.w3.org/1999/xlink" x="0px" y="0px"
	 width="612.006px" height="612.006px" viewBox="0 0 612.006 612.006" style="enable-background:new 0 0 612.006 612.006;"
	 xml:space="preserve">
<g>
	<g>
		<path d="M373.813,195.537h-39.157c6.566,6.567,12.619,12.642,18.161,18.224c-2.963,4.649-4.411,10.848-3.619,17.432
			c1.544,12.856,11.029,22.285,21.188,21.063c5.067-0.611,9.344-3.755,12.166-8.354c12.16,12.432,17.969,18.523,17.969,18.523
			V222.25C400.526,207.5,388.564,195.537,373.813,195.537z"/>
		<path d="M211.383,222.873v40.175c0,0,5.809-6.092,17.969-18.523c2.823,4.598,7.099,7.743,12.172,8.354
			c10.158,1.222,19.644-8.213,21.188-21.063c0.792-6.583-0.656-12.782-3.62-17.432c5.548-5.583,11.595-11.651,18.162-18.224h-39.157
			C223.34,196.16,211.383,208.116,211.383,222.873z"/>
		<path d="M166.446,129.503c-0.639,1.618-15.571,39.983-7.132,73.325l27.019-6.838c-6.205-24.524,5.916-55.938,6.041-56.255
			l-12.963-5.107L166.446,129.503z"/>
		<path d="M419.293,139.757c3.439,8.688,11.222,35.724,6.029,56.232l27.02,6.838c8.438-33.342-6.493-71.708-7.133-73.325
			L419.293,139.757z"/>
		<path d="M606.615,129.147c-2.731-2.76-67.708-67.517-136.813-67.517c-10.605,0-20.752,1.527-30.396,4.537l-51.125-55.746H223.628
			l-51.679,56.345c-10.832-3.416-22.076-5.136-33.659-5.136c-71.419,0-130.96,65.226-133.46,68.003L0,134.995l12.517,55.191
			c-1.962,14.672-8.241,80.491,29.197,124.756c4.23,5.006,8.846,9.535,13.846,13.602c-1.912,3.654-26.221,51.748-7.907,96.188
			c11.085,26.895,34.864,46.17,70.672,57.283c22.455,6.969,42.839,10.453,61.062,10.453c22.918,0,42.415-5.51,58.291-16.516
			c5.956-4.129,11.024-8.795,15.368-13.682l2.042,35.316l-49.377,24.021l-0.289,8.381c-0.763,22.234,5.074,39.65,17.347,51.76
			c16.623,16.402,41.188,19.836,65.446,19.836c6.091,0,12.166-0.215,18.093-0.498c21.934-1.047,36.278-6.748,43.846-17.443
			c4.644-6.561,5.57-13.688,4.79-19.066l4.802-101.334c4.146,4.531,8.937,8.857,14.491,12.709
			c15.876,11.006,35.373,16.516,58.291,16.516c18.218,0,38.608-3.484,61.062-10.453c35.809-11.113,59.586-30.383,70.672-57.283
			c18.314-44.439-5.995-92.533-7.907-96.188c4.995-4.066,9.61-8.596,13.847-13.602c37.432-44.265,31.153-110.089,29.196-124.755
			l12.607-55.61L606.615,129.147z M235.885,38.294h140.14l16.352,17.828l-15.022-0.848l-0.679,3.456l-4.988,25.373l-23.45-30.95
			L305.958,97.19l-42.285-44.038l-23.45,30.95l-4.989-25.373l-0.679-3.456l-15.022,0.848L235.885,38.294z M221.796,453.046
			c-21.091,14.621-53.127,15.412-95.214,2.352c-27.443-8.518-45.311-22.357-53.11-41.146c-2.607-6.279-3.981-12.789-4.502-19.215
			c5.492,10.221,12.341,18.734,20.441,25.391c13.733,11.283,30.684,17.008,50.384,17.008c33.953,0,59.157-8.992,74.915-26.736
			c4.644-5.227,7.76-10.508,9.853-15.17l24.841,3.779l0.685,11.82C244.708,425.817,237.514,442.146,221.796,453.046z
			 M194.867,391.005c-0.627,0.773-1.312,1.555-2.076,2.336c-10.311,10.609-28.636,16.215-52.997,16.215
			c-23.688,0-39.937-11.43-49.694-34.953c-4.593-11.076-6.618-22.387-7.511-30.086c16.504,6.783,35.622,10.205,57.233,10.205
			l10.045-0.006l3.179-9.525c0.136-0.418,11.521-34.156,29.519-61.872c6.228,15.373,9.683,28.049,10.888,39.598
			c1.646,15.752-0.667,30.633-7.743,49.762l-5.934,16.041L194.867,391.005z M242.344,561.907c-5.26-5.193-8.212-12.688-8.942-22.783
			l18.942-9.213l24.711,43.432C262.514,572.411,249.912,569.378,242.344,561.907z M333.175,435.015H298.05v27.873h33.8
			l-0.831,17.521h-21.793v27.873h20.47l-2.631,59.592c-1.204,1.109-6.232,4.615-22.098,5.367
			c-5.928,0.283-11.838,0.471-17.573,0.436l-9.836-170.1l28.388,4.316l28.716-4.367L333.175,435.015z M336.104,373.255h-60.288
			l-1.069-18.539h62.239L336.104,373.255z M538.494,414.108c-7.771,18.857-25.661,32.75-53.167,41.283
			c-42.086,13.061-74.122,12.27-95.214-2.352c-15.384-10.668-22.602-26.539-27.946-40.99l0.605-12.799l24.575-3.738
			c2.093,4.66,5.209,9.943,9.854,15.168c15.757,17.744,40.961,26.736,74.914,26.736c19.699,0,36.65-5.723,50.384-17.008
			c8.122-6.674,14.982-15.209,20.48-25.469C542.453,401.343,541.079,407.831,538.494,414.108z M426.199,372.667
			c-7.076-19.129-9.389-34.01-7.743-49.762c1.21-11.549,4.66-24.225,10.888-39.598c17.998,27.721,29.378,61.459,29.52,61.865
			l3.173,9.537h10.051c21.611,0,40.724-3.422,57.233-10.199c-0.894,7.705-2.919,19.016-7.512,30.086
			c-9.751,23.523-26.006,34.953-49.693,34.953c-24.361,0-42.687-5.605-52.997-16.215c-0.758-0.781-1.448-1.562-2.076-2.336
			l15.091-2.297L426.199,372.667z M571.486,191.951c0.107,0.651,10.616,65.751-22.574,104.993c-1.877,2.223-3.874,4.321-5.983,6.301
			l-12.907-24.327v34.061c-13.133,7.9-29.27,12.449-48.28,13.58c-6.77-17.664-22.782-55.079-45.226-79.739l-13.88-15.249
			l-8.971,18.575c-13.789,28.54-20.859,50.09-22.929,69.862c-1.59,15.17-0.323,29.887,4.105,46.182l-30.724,4.672l2.506-52.9
			c0.362-7.686-5.571-14.213-13.258-14.581c-7.692-0.368-14.214,5.571-14.581,13.259l-0.034,0.66l-0.452,9.543H273.13l-0.554-9.543
			l-0.045-0.803c-0.447-7.682-7.03-13.546-14.717-13.11c-7.681,0.447-13.552,7.036-13.111,14.718l3.049,52.754l-30.69-4.672
			c4.429-16.297,5.696-31.008,4.106-46.182c-2.07-19.774-9.14-41.324-22.93-69.864l-8.965-18.569l-13.885,15.254
			c-22.443,24.66-38.461,62.075-45.226,79.739c-19.01-1.131-35.146-5.68-48.28-13.58v-34.033l-12.901,24.298
			c-2.082-1.952-4.05-4.021-5.911-6.21c-33.104-39.027-22.754-104.45-22.646-105.089l0.458-2.715l-10.424-45.972
			c14.536-14.23,59.292-53.766,107.838-53.766c17.528,0,34.128,5.294,49.349,15.735l11.815,8.111l7.771-12.042
			c1.148-1.782,3.343-5.13,6.125-9.367l11.51,58.58l41.306-54.519l39.779,41.431l39.778-41.431l41.312,54.519l11.51-58.58
			c2.782,4.236,4.978,7.585,6.125,9.367l8.219,12.726l11.996-9.248c13.337-10.283,28.031-15.277,44.909-15.277
			c47.262,0,95.615,39.762,111.56,54.151l-10.339,45.588L571.486,191.951z"/>
	</g>
</g>
<g>
</g>
<g>
</g>
<g>
</g>
<g>
</g>
<g>
</g>
<g>
</g>
<g>
</g>
<g>
</g>
<g>
</g>
<g>
</g>
<g>
</g>
<g>
</g>
<g>
</g>
<g>
</g>
<g>
</g>
</svg>
